<svg width="16" height="16" viewBox="0 0 16 16" fill="none" xmlns="http://www.w3.org/2000/svg">
<path d="M15.7551 0.244897C15.9184 0.408162 16 0.598639 16 0.816325C16 1.03401 15.9184 1.22449 15.7551 1.38776L2.77551 14.3673L9.95918 14.3673C10.195 14.3673 10.39 14.4444 10.5442 14.5986C10.6984 14.7528 10.7755 14.9478 10.7755 15.1837C10.7755 15.4195 10.6984 15.6145 10.5442 15.7687C10.39 15.9229 10.195 16 9.95918 16L0.816326 16C0.580499 16 0.385487 15.9229 0.231292 15.7687C0.0770969 15.6145 -5.07488e-08 15.4195 -7.13655e-08 15.1837L-8.70659e-07 6.04082C-8.91276e-07 5.80499 0.077096 5.60998 0.231291 5.45578C0.385486 5.30159 0.580498 5.22449 0.816325 5.22449C1.05215 5.22449 1.24716 5.30159 1.40136 5.45578C1.55555 5.60998 1.63265 5.80499 1.63265 6.04082L1.63265 13.2245L14.6122 0.244897C14.7755 0.0816318 14.966 -1.81695e-06 15.1837 -1.83598e-06C15.4014 -1.85501e-06 15.5918 0.0816317 15.7551 0.244897Z" fill="white"/>
</svg>
