<svg width="16" height="16" viewBox="0 0 16 16" fill="none" xmlns="http://www.w3.org/2000/svg">
<path d="M0.244898 15.7551C0.0816325 15.5918 0 15.4014 0 15.1837C0 14.966 0.0816325 14.7755 0.244898 14.6122L13.2245 1.63265H6.04082C5.80499 1.63265 5.60998 1.55556 5.45578 1.40136C5.30159 1.24717 5.22449 1.05215 5.22449 0.816327C5.22449 0.580499 5.30159 0.385488 5.45578 0.231293C5.60998 0.0770976 5.80499 0 6.04082 0H15.1837C15.4195 0 15.6145 0.0770976 15.7687 0.231293C15.9229 0.385488 16 0.580499 16 0.816327V9.95918C16 10.195 15.9229 10.39 15.7687 10.5442C15.6145 10.6984 15.4195 10.7755 15.1837 10.7755C14.9478 10.7755 14.7528 10.6984 14.5986 10.5442C14.4444 10.39 14.3673 10.195 14.3673 9.95918V2.77551L1.38775 15.7551C1.22449 15.9184 1.03401 16 0.816327 16C0.598639 16 0.408163 15.9184 0.244898 15.7551Z" fill="white"/>
</svg>
