<svg width="17" height="19" viewBox="0 0 17 19" fill="none" xmlns="http://www.w3.org/2000/svg">
<path d="M16.3489 12.1108L14.729 10.4819V6.46816C14.7505 4.97769 14.2321 3.52976 13.2694 2.39171C12.3066 1.25366 10.9647 0.502362 9.49127 0.276534C8.63615 0.163921 7.76685 0.234969 6.94137 0.484939C6.11588 0.734908 5.3532 1.15805 4.70421 1.72613C4.05522 2.29421 3.53484 2.99417 3.1778 3.7793C2.82075 4.56443 2.63526 5.41667 2.63368 6.27917V10.4819L1.01378 12.1108C0.810306 12.3177 0.672324 12.5799 0.617083 12.8648C0.561841 13.1496 0.591791 13.4445 0.703187 13.7124C0.814584 13.9803 1.00248 14.2095 1.2434 14.3712C1.48432 14.5329 1.76756 14.62 2.05772 14.6217H5.08153V14.9277C5.12357 15.8413 5.52606 16.701 6.20082 17.3184C6.87557 17.9358 7.76756 18.2605 8.68132 18.2215C9.59507 18.2605 10.4871 17.9358 11.1618 17.3184C11.8366 16.701 12.2391 15.8413 12.2811 14.9277V14.6217H15.3049C15.5951 14.62 15.8783 14.5329 16.1192 14.3712C16.3601 14.2095 16.548 13.9803 16.6594 13.7124C16.7708 13.4445 16.8008 13.1496 16.7456 12.8648C16.6903 12.5799 16.5523 12.3177 16.3489 12.1108ZM10.4812 14.9277C10.4313 15.3605 10.2163 15.7575 9.88101 16.0357C9.54571 16.314 9.11598 16.4522 8.68132 16.4216C8.24666 16.4522 7.81692 16.314 7.48162 16.0357C7.14633 15.7575 6.93133 15.3605 6.88142 14.9277V14.6217H10.4812V14.9277Z" fill="#0CABDF"/>
</svg>
