<svg width="22" height="24" viewBox="0 0 22 24" fill="none" xmlns="http://www.w3.org/2000/svg">
<path d="M13.648 5.493C14.521 4.792 15.42 3.85 15.876 2.704C16.114 2.106 16.037 1.427 15.671 0.888C15.294 0.332 14.669 0 14 0H8C7.331 0 6.706 0.332 6.329 0.888C5.963 1.427 5.887 2.106 6.124 2.704C6.58 3.849 7.479 4.792 8.352 5.493C3.696 7.221 0 13.159 0 18C0 21.309 2.691 24 6 24H16C19.309 24 22 21.309 22 18C22 13.159 18.304 7.221 13.648 5.493ZM14.017 1.965C13.501 3.262 11.923 4.358 10.998 4.875C10.075 4.362 8.503 3.275 7.999 2L14.017 1.965ZM15.999 22H6C3.794 22 2 20.206 2 18C2 12.757 6.71 7 11 7C15.29 7 20 12.757 20 18C20 20.206 18.206 22 16 22H15.999ZM10.999 22C10.447 22 9.999 21.552 9.999 21V20H9.731C8.663 20 7.668 19.426 7.133 18.501C6.857 18.023 7.02 17.412 7.498 17.135C7.974 16.858 8.587 17.021 8.864 17.5C9.042 17.808 9.375 18 9.731 18H11.999C12.55 18 12.999 17.551 12.999 17C12.999 16.622 12.728 16.302 12.355 16.24L9.313 15.733C7.972 15.51 6.998 14.36 6.998 13C6.998 11.346 8.344 10 9.998 10V9C9.998 8.448 10.446 8 10.998 8C11.55 8 11.998 8.448 11.998 9V10H12.266C13.333 10 14.329 10.575 14.864 11.5C15.14 11.978 14.977 12.589 14.499 12.866C14.022 13.143 13.41 12.98 13.133 12.501C12.954 12.192 12.622 12.001 12.266 12.001H9.998C9.447 12.001 8.998 12.45 8.998 13.001C8.998 13.379 9.269 13.699 9.642 13.761L12.684 14.268C14.025 14.491 14.999 15.641 14.999 17.001C14.999 18.655 13.653 20.001 11.999 20.001V21.001C11.999 21.553 11.551 22.001 10.999 22.001V22Z" fill="#76808A"/>
</svg>
