<svg width="24" height="24" viewBox="0 0 24 24" fill="none" xmlns="http://www.w3.org/2000/svg">
<path d="M17 17.9925V23.9925H21C22.6568 23.9925 24 22.6494 24 20.9925V11.8716C24.0002 11.352 23.7983 10.8528 23.437 10.4796L14.939 1.29253C13.4396 -0.329811 10.9089 -0.429421 9.28655 1.07002C9.20949 1.14127 9.13523 1.21547 9.06403 1.29253L0.581016 10.4766C0.208734 10.8514 -0.000140554 11.3583 7.09607e-08 11.8866V20.9925C7.09607e-08 22.6494 1.34316 23.9925 3 23.9925H6.99998V17.9925C7.01869 15.2657 9.22027 13.039 11.8784 12.9749C14.6255 12.9086 16.9791 15.1733 17 17.9925Z" fill="#0CABDF"/>
</svg>
