<svg width="20" height="24" viewBox="0 0 20 24" fill="none" xmlns="http://www.w3.org/2000/svg">
<path d="M17.95 5.53599L14.465 2.05099C13.143 0.728992 11.385 0.000992156 9.515 0.000992156H5C2.243 -7.84453e-06 0 2.24299 0 4.99999V19C0 21.757 2.243 24 5 24H15C17.757 24 20 21.757 20 19V10.485C20 8.61499 19.272 6.85799 17.95 5.53499V5.53599ZM16.536 6.94999C16.854 7.26799 17.123 7.62099 17.341 7.99999H13C12.449 7.99999 12 7.55099 12 6.99999V2.65899C12.379 2.87699 12.733 3.14599 13.05 3.46399L16.535 6.94899L16.536 6.94999ZM18 19C18 20.654 16.654 22 15 22H5C3.346 22 2 20.654 2 19V4.99999C2 3.34599 3.346 1.99999 5 1.99999H9.515C9.678 1.99999 9.84 2.00799 10 2.02299V6.99999C10 8.65399 11.346 9.99999 13 9.99999H17.977C17.992 10.16 18 10.322 18 10.485V19ZM13.5 13H6.5C5.122 13 4 14.122 4 15.5V17.5C4 18.878 5.122 20 6.5 20H13.5C14.878 20 16 18.878 16 17.5V15.5C16 14.122 14.878 13 13.5 13ZM14 17.5C14 17.776 13.776 18 13.5 18H6.5C6.224 18 6 17.776 6 17.5V15.5C6 15.224 6.224 15 6.5 15H13.5C13.776 15 14 15.224 14 15.5V17.5ZM4 9.99999C4 9.44799 4.448 8.99999 5 8.99999H7C7.552 8.99999 8 9.44799 8 9.99999C8 10.552 7.552 11 7 11H5C4.448 11 4 10.552 4 9.99999ZM4 5.99999C4 5.44799 4.448 4.99999 5 4.99999H7C7.552 4.99999 8 5.44799 8 5.99999C8 6.55199 7.552 6.99999 7 6.99999H5C4.448 6.99999 4 6.55199 4 5.99999Z" fill="#76808A"/>
</svg>
